<svg width="0" height="0" class="hidden">
  <symbol fill="none" xmlns="http://www.w3.org/2000/svg" viewBox="0 0 119 154" id="plane">
    <path d="M72.3891 86.9413C71.0307 87.2456 69.7077 87.8091 68.5022 88.5965C65.3614 90.5978 63.5341 93.4546 64.421 94.9767C65.308 96.4988 68.5731 96.1095 71.7138 94.1082C72.9356 93.3486 74.021 92.3779 74.9032 91.2559C75.3125 90.7138 75.386 90.0383 75.0908 89.5334L73.9386 87.556C73.6454 87.0495 73.0374 86.8086 72.3891 86.9413Z" fill="#D5D6DB"></path>
    <path d="M64.5021 59.9482C63.5171 60.169 62.5577 60.5778 61.6834 61.1488C59.4066 62.5996 58.0808 64.671 58.7234 65.7738C59.366 66.8766 61.7345 66.5941 64.0111 65.1434C64.897 64.5923 65.6839 63.8881 66.3237 63.0744C66.6202 62.6815 66.6733 62.1922 66.4593 61.8261L65.6251 60.3943C65.4128 60.0271 64.9722 59.8521 64.5021 59.9482Z" fill="#D5D6DB"></path>
    <path d="M51.688 61.0787C51.4687 61.0542 51.2349 61.1126 51.0322 61.2421L45.684 64.6503C45.2366 64.9346 45.0576 65.4819 45.2845 65.8731C45.3364 65.9627 45.4075 66.0393 45.4937 66.0983L58.6753 75.1832L76.5088 63.8185L51.688 61.0787Z" fill="#029BC5"></path>
    <path d="M108.065 59.794L59.5329 90.3461L30.8201 101.772L16.177 104.682L14.566 101.945L95.4612 51.9985C97.872 50.5036 100.558 49.586 103.246 49.3389C104.424 49.237 105.587 49.2762 106.708 49.455C107.702 49.6057 108.645 49.8964 109.508 50.3185C110.472 50.7967 112.307 50.8519 112.901 51.8047C112.903 51.8032 114.305 56.1776 108.065 59.794V59.794Z" fill="#E1E6E9"></path>
    <path d="M60.1762 86.3036L39.1809 119.774C38.9187 120.244 39.0744 120.77 39.5283 120.949C39.8068 121.059 40.1477 121.016 40.4341 120.834L45.7781 117.444C46.806 116.791 47.7161 115.963 48.4523 115.009L89.1686 67.1404L60.1762 86.3036Z" fill="#029BC5"></path>
    <path d="M7.19662 85.1861C6.8464 85.0664 6.42961 85.1285 6.07778 85.3525L1.66029 88.1659C1.05837 88.549 0.818522 89.2854 1.12438 89.8111C1.18266 89.911 1.25836 89.999 1.3491 90.0714L13.7259 99.9838L26.7389 91.8557L7.19662 85.1861Z" fill="#029BC5"></path>
    <path d="M17.8743 101.771L11.2128 111.1C11.1152 111.234 11.1381 111.403 11.2641 111.476C11.3549 111.529 11.4789 111.519 11.5797 111.452L15.708 108.836C15.74 108.815 15.7691 108.79 15.7931 108.761L25.5266 96.9261L17.8743 101.771Z" fill="#029BC5"></path>
    <path d="M105.911 49.8572C104.757 49.6718 103.559 49.6322 102.346 49.7388C101.166 51.3899 100.411 53.2446 100.157 55.118C100.139 55.4943 100.442 55.7652 100.835 55.723C100.957 55.7098 101.079 55.6669 101.188 55.5981L108.796 50.7538C107.906 50.3152 106.935 50.0134 105.911 49.8572Z" fill="#029BC5"></path>
    <path d="M89.3322 58.7653L94.2992 55.6284L98.9258 63.4974L93.9588 66.6343L89.3322 58.7653Z" fill="#D5D6DB"></path>
    <path d="M86.2066 61.8775C85.6081 62.2567 85.3688 62.9855 85.6727 63.5052L86.165 64.3472C86.4889 64.8536 87.2282 64.9427 87.8164 64.546C88.3763 64.1682 88.6017 63.4815 88.3319 62.9745L87.8396 62.1325C87.536 61.6132 86.8052 61.499 86.2066 61.8775V61.8775Z" fill="#3A556A"></path>
    <path d="M81.7423 64.65C81.1437 65.0291 80.9045 65.7579 81.2084 66.2777L81.7007 67.1196C82.0245 67.6261 82.7638 67.7152 83.3521 67.3185C83.9119 66.9407 84.1373 66.254 83.8676 65.747L83.3752 64.905C83.0714 64.3859 82.3406 64.2716 81.7423 64.65V64.65Z" fill="#3A556A"></path>
    <path d="M77.2764 67.4233C76.6785 67.803 76.4401 68.5309 76.7438 69.0501L77.2361 69.8921C77.5599 70.3986 78.2992 70.4876 78.8875 70.0909C79.4473 69.7131 79.6727 69.0265 79.403 68.5195L78.9106 67.6775C78.6068 67.1578 77.8752 67.044 77.2764 67.4233V67.4233Z" fill="#3A556A"></path>
    <path d="M72.8121 70.1957C72.2142 70.5754 71.9758 71.3033 72.2794 71.8226L72.7717 72.6646C73.0956 73.171 73.8348 73.2601 74.4231 72.8634C74.9829 72.4856 75.2084 71.7989 74.9386 71.2919L74.4463 70.4499C74.1422 69.9304 73.4106 69.8166 72.8121 70.1957V70.1957Z" fill="#3A556A"></path>
    <path d="M68.3481 72.9684C67.7499 73.3482 67.5113 74.0764 67.8151 74.5959L68.3077 75.4383C68.6114 75.9575 69.3427 76.0712 69.941 75.6923C70.5394 75.3133 70.7783 74.5851 70.4746 74.0658L69.982 73.2235C69.6791 72.7037 68.9481 72.5892 68.3494 72.9676C68.3489 72.9679 68.3486 72.9681 68.3481 72.9684Z" fill="#3A556A"></path>
    <path d="M63.8837 75.7408C63.2855 76.1207 63.047 76.8489 63.3508 77.3684L63.8434 78.2107C64.147 78.73 64.8783 78.8437 65.4767 78.4647C66.075 78.0857 66.3139 77.3575 66.0103 76.8383L65.5177 75.9959C65.2148 75.4762 64.4838 75.3617 63.885 75.74C63.8845 75.7404 63.884 75.7407 63.8837 75.7408Z" fill="#3A556A"></path>
    <path d="M59.4191 78.5134C58.8209 78.8932 58.5824 79.6214 58.8862 80.1409L59.3788 80.9832C59.6832 81.502 60.4148 81.6145 61.0125 81.2351C61.6092 80.8562 61.8476 80.1296 61.5454 79.6109L61.0528 78.7686C60.7492 78.249 60.018 78.1347 59.4191 78.5134Z" fill="#3A556A"></path>
    <path d="M54.9545 81.2859C54.3563 81.6657 54.1178 82.3939 54.4216 82.9134L54.9142 83.7558C55.2186 84.2746 55.9502 84.3871 56.5479 84.0076C57.1446 83.6288 57.383 82.9021 57.0808 82.3835L56.5882 81.5411C56.2846 81.0215 55.5534 80.9072 54.9545 81.2859Z" fill="#3A556A"></path>
    <path d="M50.4903 84.0583C49.8921 84.4381 49.6535 85.1663 49.9573 85.6858L50.4499 86.5281C50.7543 87.0469 51.486 87.1595 52.0837 86.78C52.6804 86.4011 52.9188 85.6745 52.6165 85.1559L52.1239 84.3136C51.8201 83.7941 51.0889 83.6798 50.4903 84.0583Z" fill="#3A556A"></path>
    <path d="M46.0245 86.8315C45.4261 87.2105 45.1872 87.9387 45.4909 88.458L45.4915 88.4591L45.9841 89.3014C46.2885 89.8202 47.0201 89.9328 47.6179 89.5533C48.2146 89.1744 48.453 88.4478 48.1507 87.9291L47.6581 87.0868C47.3546 86.5671 46.6233 86.4528 46.0245 86.8315Z" fill="#3A556A"></path>
    <path d="M41.5612 89.6032C40.9629 89.9822 40.724 90.7104 41.0276 91.2296L41.0283 91.2307L41.5209 92.073C41.8253 92.5918 42.5569 92.7044 43.1546 92.3249C43.7514 91.9461 43.9898 91.2194 43.6875 90.7008L43.1949 89.8585C42.8911 89.339 42.1599 89.2247 41.5612 89.6032Z" fill="#3A556A"></path>
  </symbol>
  <symbol fill="none" xmlns="http://www.w3.org/2000/svg" viewBox="0 0 77 66" id="setting">
    <path d="M27 48C27 57.9411 35.0589 66 45 66L72 66C74.7614 66 77 63.7614 77 61L77 27C77 21.4772 72.5228 17 67 17L32 17C29.2386 17 27 19.2386 27 22L27 48Z" fill="#FFF1DA"></path>
    <path d="M50 27.8482V22.1518C50 21.0351 49.0947 20.1299 47.9781 20.1299H45.7994C44.9282 20.1299 44.1553 19.5717 43.8815 18.7448C43.5764 17.8235 43.2058 16.9322 42.7752 16.0763C42.3831 15.2967 42.5332 14.3542 43.1502 13.7371L44.6916 12.1957C45.4813 11.406 45.4813 10.1259 44.6916 9.33622L40.6637 5.30825C39.874 4.51861 38.5938 4.51861 37.8042 5.30825L36.2628 6.8497C35.6457 7.4668 34.7032 7.6168 33.9236 7.22465C33.0677 6.79406 32.1763 6.42344 31.2551 6.11841C30.4282 5.84457 29.87 5.07163 29.87 4.2005V2.02193C29.87 0.905231 28.9648 0 27.8481 0H22.1517C21.035 0 20.1298 0.905231 20.1298 2.02193V4.2006C20.1298 5.07173 19.5716 5.84467 18.7446 6.11851C17.8234 6.42354 16.9321 6.79417 16.0761 7.22475C15.2966 7.6169 14.3541 7.4668 13.737 6.8498L12.1956 5.30835C11.4059 4.51871 10.1257 4.51871 9.3361 5.30835L5.30833 9.33632C4.51869 10.126 4.51869 11.4061 5.30833 12.1958L6.84978 13.7372C7.46678 14.3543 7.61688 15.2968 7.22473 16.0764C6.79415 16.9323 6.42352 17.8236 6.11849 18.7449C5.92493 19.3293 5.48218 19.7794 4.93167 19.9932C4.7032 20.0819 4.55672 20.2305 4.30119 20.2305H2.12252C1.00582 20.2305 0.100586 21.1357 0.100586 22.2524V27.7476C0.100586 28.8643 1.00582 29.7695 2.12252 29.7695H4.30119C5.17232 29.7695 5.94525 30.4283 6.2191 31.2552C6.52413 32.1765 6.89475 33.0677 7.32533 33.9237C7.71749 34.7033 7.56739 35.6458 6.95038 36.2629L5.50954 37.8043C4.7199 38.594 4.7199 39.8741 5.50954 40.6638L9.3363 44.4905C10.1259 45.2802 11.4061 45.2802 12.1958 44.4905L13.7372 42.9491C14.3542 42.332 15.2968 42.182 16.0763 42.5741C16.9323 43.0047 18.0248 43.476 18.9461 43.781C19.773 44.0548 20.3312 44.8278 20.3312 45.6989V47.8776C20.3312 48.9943 21.2364 49.8995 22.3531 49.8995H27.7477C28.8644 49.8995 29.7696 48.9943 29.7696 47.8776V45.6989C29.7696 45.4434 29.9182 45.2969 30.0069 45.0684C30.2207 44.5179 30.6709 44.0751 31.2552 43.8816C32.1764 43.5766 33.0678 43.2059 33.9237 42.7754C34.7033 42.3832 35.6458 42.5333 36.2629 43.1503L37.8043 44.6917C38.5939 45.4814 39.8741 45.4814 40.6638 44.6917L44.6917 40.6638C45.4814 39.8741 45.4814 38.594 44.6917 37.8043L43.1503 36.2629C42.5333 35.6458 42.3832 34.7033 42.7753 33.9237C43.2059 33.0678 43.5765 32.1765 43.8816 31.2552C44.1554 30.4283 44.9284 29.8701 45.7995 29.8701H47.9781C49.0947 29.8701 50 28.9649 50 27.8482Z" fill="#B6C4CF"></path>
    <path d="M30.007 45.0684C29.9185 45.2967 29.8702 45.5442 29.8702 45.7998V47.9778C29.8702 49.0945 28.9648 50 27.8481 50H22.1519C21.0352 50 20.1298 49.0945 20.1298 47.9778V45.7998C20.1298 44.9285 19.5714 44.1549 18.7445 43.8812C17.8239 43.5764 16.9326 43.2062 16.0765 42.7756C15.2968 42.3833 14.3541 42.5332 13.7374 43.1499L12.1962 44.6911C11.4064 45.4808 10.1258 45.4808 9.33602 44.6911L5.30785 40.6639C4.51911 39.8742 4.51911 38.5935 5.30785 37.8038L6.8501 36.2625C7.4668 35.6458 7.6167 34.7032 7.22435 33.9235C6.79376 33.0674 6.42354 32.176 6.11871 31.2555C5.84507 30.4285 5.07143 29.8702 4.2002 29.8702H2.02213C0.905433 29.8702 0 28.9648 0 27.8481V22.1519C0 21.0352 0.905433 20.1297 2.02213 20.1297H4.2002C4.45573 20.1297 4.70322 20.0815 4.93159 19.9929C4.92958 20.1187 4.92857 20.2454 4.92857 20.3722C4.92857 34.013 15.9869 45.0714 29.6278 45.0714C29.7545 45.0714 29.8813 45.0704 30.007 45.0684Z" fill="#9FACBA"></path>
    <path d="M25 41.5996C34.1677 41.5996 41.5996 34.1677 41.5996 25C41.5996 15.8323 34.1677 8.40039 25 8.40039C15.8323 8.40039 8.40039 15.8323 8.40039 25C8.40039 34.1677 15.8323 41.5996 25 41.5996Z" fill="#9FACBA"></path>
    <path d="M24.9999 38.0784C32.2229 38.0784 38.0783 32.223 38.0783 25C38.0783 17.7769 32.2229 11.9215 24.9999 11.9215C17.7768 11.9215 11.9214 17.7769 11.9214 25C11.9214 32.223 17.7768 38.0784 24.9999 38.0784Z" fill="#F8F7F7"></path>
  </symbol>
  <symbol version="1.1" id="ux" xmlns="http://www.w3.org/2000/svg" xmlns:xlink="http://www.w3.org/1999/xlink" x="0px" y="0px" xml:space="preserve" viewBox="0 0 512 512">
    <circle cx="256" cy="256" r="245"></circle>
    <rect x="174.63" y="379.83" width="108" height="46.17"></rect>
    <rect x="174.63" y="379.83" width="19.842" height="46.17"></rect>
    <path d="M333.134,450c0,2.75-2.25,5-5,5H129.131c-2.75,0-5-2.25-5-5v-20c0-2.75,2.25-5,5-5h199.003
	c2.75,0,5,2.25,5,5V450z"></path>
    <path d="M143.973,450v-20c0-2.75,2.25-5,5-5h-19.842c-2.75,0-5,2.25-5,5v20c0,2.75,2.25,5,5,5h19.842
	C146.223,455,143.973,452.75,143.973,450z"></path>
    <path d="M0,370.834c0,5.5,4.5,10,10,10h300.175v-66.951H0V370.834z"></path>
    <path d="M19.842,370.834v-56.951H0v56.951c0,5.5,4.5,10,10,10h19.842
	C24.342,380.834,19.842,376.334,19.842,370.834z"></path>
    <path d="M310.175,286.987c0-2.206,1.794-4,4-4h143.09V66.465c0-6.046-4.946-10.992-10.991-10.992H10.992
	C4.946,55.473,0,60.419,0,66.465v248.418h310.175V286.987z"></path>
    <path d="M310.175,286.987c0-2.206,1.794-4,4-4h121.107V82.457c0-2.75-2.25-5-5-5H26.984c-2.75,0-5,2.25-5,5
	v205.441c0,2.75,2.25,5,5,5h283.19L310.175,286.987L310.175,286.987z"></path>
    <circle cx="228.63" cy="348.21" r="13.911"></circle>
    <path d="M416.361,206.376c0,2.75-2.25,5-5,5H252.904c-2.75,0-5-2.25-5-5v-72.718c0-2.75,2.25-5,5-5h158.457
	c2.75,0,5,2.25,5,5L416.361,206.376L416.361,206.376z"></path>
    <path d="M267.747,206.376v-72.718c0-2.75,2.25-5,5-5h-19.842c-2.75,0-5,2.25-5,5v72.718c0,2.75,2.25,5,5,5
	h19.842C269.997,211.376,267.747,209.126,267.747,206.376z"></path>
    <g>
      <path d="M299.266,240.121h-43.112c-4.142,0-7.5-3.357-7.5-7.5s3.358-7.5,7.5-7.5h43.112
		c4.142,0,7.5,3.357,7.5,7.5S303.408,240.121,299.266,240.121z"></path>
      <path d="M299.266,262.916h-43.112c-4.142,0-7.5-3.357-7.5-7.5s3.358-7.5,7.5-7.5h43.112
		c4.142,0,7.5,3.357,7.5,7.5S303.408,262.916,299.266,262.916z"></path>
      <path d="M351.28,240.121h-32.06c-4.142,0-7.5-3.357-7.5-7.5s3.358-7.5,7.5-7.5h32.06
		c4.142,0,7.5,3.357,7.5,7.5S355.422,240.121,351.28,240.121z"></path>
      <path d="M351.28,262.916h-32.06c-4.142,0-7.5-3.357-7.5-7.5s3.358-7.5,7.5-7.5h32.06
		c4.142,0,7.5,3.357,7.5,7.5S355.422,262.916,351.28,262.916z"></path>
      <path d="M411.772,240.121h-40.836c-4.142,0-7.5-3.357-7.5-7.5s3.358-7.5,7.5-7.5h40.836
		c4.142,0,7.5,3.357,7.5,7.5S415.914,240.121,411.772,240.121z"></path>
      <path d="M411.772,262.916h-40.836c-4.142,0-7.5-3.357-7.5-7.5s3.358-7.5,7.5-7.5h40.836
		c4.142,0,7.5,3.357,7.5,7.5S415.914,262.916,411.772,262.916z"></path>
    </g>
    <g>
      <path d="M359.365,111.084c0,2.75-2.25,5-5,5h-10.999c-2.75,0-5-2.25-5-5v-10.999c0-2.75,2.25-5,5-5h10.999
		c2.75,0,5,2.25,5,5V111.084z"></path>
      <path d="M387.363,111.084c0,2.75-2.25,5-5,5h-10.999c-2.75,0-5-2.25-5-5v-10.999c0-2.75,2.25-5,5-5h10.999
		c2.75,0,5,2.25,5,5V111.084z"></path>
      <path d="M415.361,111.084c0,2.75-2.25,5-5,5h-10.999c-2.75,0-5-2.25-5-5v-10.999c0-2.75,2.25-5,5-5h10.999
		c2.75,0,5,2.25,5,5V111.084z"></path>
    </g>
    <g>
      <path d="M190.898,257.005h-9c-4.142,0-7.5-3.357-7.5-7.5s3.358-7.5,7.5-7.5h9c4.142,0,7.5,3.357,7.5,7.5
		C198.398,253.648,195.04,257.005,190.898,257.005z"></path>
      <path d="M156.898,257.005h-9c-4.142,0-7.5-3.357-7.5-7.5s3.358-7.5,7.5-7.5h9c4.142,0,7.5,3.357,7.5,7.5
		C164.398,253.648,161.04,257.005,156.898,257.005z"></path>
      <path d="M122.897,257.005h-9c-4.142,0-7.5-3.357-7.5-7.5s3.358-7.5,7.5-7.5h9c4.142,0,7.5,3.357,7.5,7.5
		C130.398,253.648,127.04,257.005,122.897,257.005z"></path>
      <path d="M88.897,257.005h-9c-4.142,0-7.5-3.357-7.5-7.5s3.358-7.5,7.5-7.5h9c4.142,0,7.5,3.357,7.5,7.5
		C96.397,253.648,93.04,257.005,88.897,257.005z"></path>
      <path d="M220.148,226.106c-4.142,0-7.5-3.357-7.5-7.5v-9c0-4.142,3.358-7.5,7.5-7.5s7.5,3.358,7.5,7.5v9
		C227.648,222.749,224.29,226.106,220.148,226.106z"></path>
      <path d="M220.148,192.106c-4.142,0-7.5-3.357-7.5-7.5v-9c0-4.142,3.358-7.5,7.5-7.5s7.5,3.358,7.5,7.5v9
		C227.648,188.749,224.29,192.106,220.148,192.106z"></path>
      <path d="M220.148,158.106c-4.142,0-7.5-3.357-7.5-7.5v-9c0-4.142,3.358-7.5,7.5-7.5s7.5,3.358,7.5,7.5v9
		C227.648,154.749,224.29,158.106,220.148,158.106z"></path>
      <path d="M50.147,226.106c-4.142,0-7.5-3.357-7.5-7.5v-9c0-4.142,3.358-7.5,7.5-7.5s7.5,3.358,7.5,7.5v9
		C57.647,222.749,54.29,226.106,50.147,226.106z"></path>
      <path d="M50.147,192.106c-4.142,0-7.5-3.357-7.5-7.5v-9c0-4.142,3.358-7.5,7.5-7.5s7.5,3.358,7.5,7.5v9
		C57.647,188.749,54.29,192.106,50.147,192.106z"></path>
      <path d="M50.147,158.106c-4.142,0-7.5-3.357-7.5-7.5v-9c0-4.142,3.358-7.5,7.5-7.5s7.5,3.358,7.5,7.5v9
		C57.647,154.749,54.29,158.106,50.147,158.106z"></path>
      <path d="M190.898,121.005h-9c-4.142,0-7.5-3.357-7.5-7.5s3.358-7.5,7.5-7.5h9c4.142,0,7.5,3.357,7.5,7.5
		S195.04,121.005,190.898,121.005z"></path>
      <path d="M156.898,121.005h-9c-4.142,0-7.5-3.357-7.5-7.5s3.358-7.5,7.5-7.5h9c4.142,0,7.5,3.357,7.5,7.5
		S161.04,121.005,156.898,121.005z"></path>
      <path d="M122.897,121.005h-9c-4.142,0-7.5-3.357-7.5-7.5s3.358-7.5,7.5-7.5h9c4.142,0,7.5,3.357,7.5,7.5
		S127.04,121.005,122.897,121.005z"></path>
      <path d="M88.897,121.005h-9c-4.142,0-7.5-3.357-7.5-7.5s3.358-7.5,7.5-7.5h9c4.142,0,7.5,3.357,7.5,7.5
		S93.04,121.005,88.897,121.005z"></path>
    </g>
    <path d="M200.148,224.505c0,2.75-2.25,5-5,5h-120c-2.75,0-5-2.25-5-5v-86c0-2.75,2.25-5,5-5h120
	c2.75,0,5,2.25,5,5V224.505z"></path>
    <path d="M89.99,224.505v-86c0-2.75,2.25-5,5-5H75.147c-2.75,0-5,2.25-5,5v86c0,2.75,2.25,5,5,5H94.99
	C92.24,229.505,89.99,227.255,89.99,224.505z"></path>
    <g>
      <path d="M234.145,121.009c0,2.75-2.25,5-5,5h-21c-2.75,0-5-2.25-5-5v-21c0-2.75,2.25-5,5-5h21
		c2.75,0,5,2.25,5,5V121.009z"></path>
      <path d="M68.145,123.009c0,2.75-2.25,5-5,5h-21c-2.75,0-5-2.25-5-5v-21c0-2.75,2.25-5,5-5h21
		c2.75,0,5,2.25,5,5V123.009z"></path>
      <path d="M234.145,260.883c0,2.75-2.25,5-5,5h-21c-2.75,0-5-2.25-5-5v-21c0-2.75,2.25-5,5-5h21
		c2.75,0,5,2.25,5,5V260.883z"></path>
      <path d="M68.145,260.883c0,2.75-2.25,5-5,5h-21c-2.75,0-5-2.25-5-5v-21c0-2.75,2.25-5,5-5h21
		c2.75,0,5,2.25,5,5V260.883z"></path>
    </g>
    <g>
      <path d="M214.167,121.009v-21c0-2.75,2.25-5,5-5h-11.022c-2.75,0-5,2.25-5,5v21c0,2.75,2.25,5,5,5h11.022
		C216.417,126.009,214.167,123.759,214.167,121.009z"></path>
      <path d="M48.167,123.009v-21c0-2.75,2.25-5,5-5H42.145c-2.75,0-5,2.25-5,5v21c0,2.75,2.25,5,5,5h11.022
		C50.417,128.009,48.167,125.759,48.167,123.009z"></path>
      <path d="M214.167,260.883v-21c0-2.75,2.25-5,5-5h-11.022c-2.75,0-5,2.25-5,5v21c0,2.75,2.25,5,5,5h11.022
		C216.417,265.883,214.167,263.633,214.167,260.883z"></path>
      <path d="M48.167,260.883v-21c0-2.75,2.25-5,5-5H42.145c-2.75,0-5,2.25-5,5v21c0,2.75,2.25,5,5,5h11.022
		C50.417,265.883,48.167,263.633,48.167,260.883z"></path>
    </g>
    <path d="M435.458,366.773c-0.155-0.422-0.143-0.662-0.121-0.74c0.001,0,0.062-0.006,0.119-0.006
	c0.114,0,0.313,0.023,0.614,0.134l42.104,15.465v-94.638c0-2.75-2.25-5-5-5h-159c-2.75,0-5,2.25-5,5v114.8c0,2.75,2.25,5,5,5h135.98
	L435.458,366.773z"></path>
    <path d="M329.017,401.787v-114.8c0-2.75,2.25-5,5-5h-19.842c-2.75,0-5,2.25-5,5v114.8c0,2.75,2.25,5,5,5
	h19.842C331.267,406.787,329.017,404.537,329.017,401.787z"></path>
    <path d="M436.415,365.222c-1.647-0.605-2.501,0.248-1.896,1.896l26.365,71.782
	c0.605,1.648,2.116,1.98,3.357,0.739l13.997-13.997c1.241-1.241,3.272-1.241,4.515,0l16.128,16.13c1.241,1.241,3.272,1.241,4.514,0
	l7.674-7.674c1.241-1.241,1.241-3.273,0-4.514l-16.129-16.129c-1.241-1.241-1.241-3.272,0-4.514l13.996-13.997
	c1.242-1.24,0.909-2.751-0.739-3.356L436.415,365.222z"></path>
    <g></g>
    <g></g>
    <g></g>
    <g></g>
    <g></g>
    <g></g>
    <g></g>
    <g></g>
    <g></g>
    <g></g>
    <g></g>
    <g></g>
    <g></g>
    <g></g>
    <g></g>
  </symbol>
  <symbol version="1.1" id="web-design" xmlns="http://www.w3.org/2000/svg" xmlns:xlink="http://www.w3.org/1999/xlink" x="0px" y="0px" xml:space="preserve" viewBox="0 0 469.34 469.34">
    <path d="M42.667,0.003h383.996c23.564,0,42.667,19.103,42.667,42.667v341.336
	c0,23.564-19.103,42.667-42.667,42.667H42.667C19.103,426.673,0,407.57,0,384.006V42.67C0,19.106,19.103,0.003,42.667,0.003z"></path>
    <path d="M21.333,85.34h426.664c11.782,0,21.333,9.551,21.333,21.333v0.001
	c0,11.782-9.551,21.333-21.333,21.333H21.333C9.551,128.007,0,118.456,0,106.674v-0.001C0,94.891,9.551,85.34,21.333,85.34z"></path>
    <path d="M42.667,0.003h384c23.564,0,42.667,19.103,42.667,42.667c0,0,0,0,0,0v64l0,0H0l0,0v-64
	C0,19.106,19.103,0.003,42.667,0.003L42.667,0.003L42.667,0.003z"></path>
    <path d="M42.667,0.003h384.004c11.782,0,21.333,9.551,21.333,21.333v0.001
	c0,11.782-9.551,21.333-21.333,21.333H42.667c-11.782,0-21.333-9.551-21.333-21.333v-0.001C21.334,9.554,30.885,0.003,42.667,0.003z
	"></path>
    <path d="M32.001,85.34h405.336c5.891,0,10.667,4.776,10.667,10.667v0c0,5.891-4.776,10.667-10.667,10.667
	H32.001c-5.891,0-10.667-4.776-10.667-10.667v0C21.334,90.116,26.11,85.34,32.001,85.34z"></path>
    <path d="M458.667,149.337c-5.891,0-10.667,4.775-10.667,10.666c0,0,0,0,0,0.001v224
	c0,11.782-9.551,21.333-21.333,21.333H309.334c-5.891,0-10.667,4.776-10.667,10.667c0,5.891,4.776,10.667,10.667,10.667h117.333
	c23.564,0,42.666-19.103,42.667-42.667v-224C469.334,154.112,464.558,149.337,458.667,149.337
	C458.667,149.337,458.667,149.337,458.667,149.337L458.667,149.337z"></path>
    <path d="M10.667,192L10.667,192c5.891,0,10.667,4.776,10.667,10.667v170.666
	c0,5.891-4.776,10.667-10.667,10.667l0,0C4.776,384,0,379.224,0,373.333V202.667C0,196.776,4.776,192,10.667,192z"></path>
    <circle cx="53.337" cy="53.34" r="10.667"></circle>
    <circle cx="95.997" cy="53.34" r="10.667"></circle>
    <circle cx="138.667" cy="53.34" r="10.667"></circle>
    <g>
      <path d="M405.334,298.67H192c-11.782,0-21.333-9.551-21.333-21.333V170.673
		c0-11.782,9.551-21.333,21.333-21.333h213.334c11.782,0,21.333,9.551,21.333,21.333v106.664
		C426.667,289.119,417.116,298.67,405.334,298.67z"></path>
      <path d="M106.664,234.67H64c-11.782,0-21.333-9.551-21.333-21.333v-42.664
		c0-11.782,9.551-21.333,21.333-21.333h42.664c11.782,0,21.333,9.551,21.333,21.333v42.664
		C127.997,225.119,118.446,234.67,106.664,234.67z"></path>
      <path d="M106.664,384H64c-11.782,0-21.333-9.551-21.333-21.333v-42.664c0-11.782,9.551-21.333,21.333-21.333
		h42.664c11.782,0,21.333,9.551,21.333,21.333v42.664C127.997,374.449,118.446,384,106.664,384z"></path>
      <path d="M181.334,320h63.996c5.891,0,10.667,4.776,10.667,10.667l0,0c0,5.891-4.776,10.667-10.667,10.667
		h-63.996c-5.891,0-10.667-4.776-10.667-10.667l0,0C170.667,324.776,175.443,320,181.334,320z"></path>
      <path d="M394.664,320h21.333c5.891,0,10.667,4.776,10.667,10.667l0,0c0,5.891-4.776,10.667-10.667,10.667
		h-21.333c-5.891,0-10.667-4.776-10.667-10.667l0,0C383.997,324.776,388.773,320,394.664,320z"></path>
      <path d="M288.004,320H352c5.891,0,10.667,4.776,10.667,10.667l0,0c0,5.891-4.776,10.667-10.667,10.667
		h-63.996c-5.891,0-10.667-4.776-10.667-10.667l0,0C277.337,324.776,282.113,320,288.004,320z"></path>
      <path d="M181.334,362.67h85.336c5.891,0,10.667,4.776,10.667,10.667l0,0c0,5.891-4.776,10.667-10.667,10.667
		h-85.336c-5.891,0-10.667-4.776-10.667-10.667l0,0C170.667,367.446,175.443,362.67,181.334,362.67z"></path>
      <path d="M309.334,362.67h21.333c5.891,0,10.667,4.776,10.667,10.667l0,0c0,5.891-4.776,10.667-10.667,10.667
		h-21.333c-5.891,0-10.667-4.776-10.667-10.667l0,0C298.667,367.446,303.443,362.67,309.334,362.67z"></path>
      <path d="M117.33,277.34H53.334c-5.891,0-10.667-4.776-10.667-10.667l0,0c0-5.891,4.776-10.667,10.667-10.667
		h63.996c5.891,0,10.667,4.776,10.667,10.667l0,0C127.997,272.564,123.221,277.34,117.33,277.34z"></path>
    </g>
    <path d="M234.667,320.003h-21.331c-58.91,0-106.667,47.756-106.667,106.667c0,0.001,0,0.001,0,0.002v0.565
	c0.076,11.653-10.209,20.767-21.862,20.767h-10.14c-5.891,0-10.667,4.776-10.667,10.667c0,5.891,4.776,10.667,10.667,10.667l0,0
	h74.667C208.244,469.337,256,421.58,256,362.67v-42.667H234.667z"></path>
    <path d="M256,362.67v-42.667h-21.333c0,58.91-47.756,106.667-106.667,106.667H106.67v0.566
	c0.076,11.652-10.21,20.767-21.862,20.767H74.667c-5.891,0-10.667,4.776-10.667,10.667c0,5.891,4.776,10.667,10.667,10.667h74.667
	C208.244,469.336,256,421.58,256,362.67L256,362.67z"></path>
    <path d="M462.184,113.82c-6.537-6.537-16.207-8.82-24.977-5.896h0
	c-75.189,26.567-137.135,81.272-172.798,152.597L256,277.337v42.667h42.667l16.816-8.408
	c71.325-35.663,126.03-97.61,152.597-172.798v0C471.004,130.026,468.721,120.357,462.184,113.82L462.184,113.82z"></path>
    <ellipse transform="matrix(-0.7071 -0.7071 0.7071 -0.7071 431.8294 605.5635)" cx="341.331" cy="213.347" rx="21.333" ry="56.757"></ellipse>
    <path d="M437.206,107.923c-3.693,1.305-7.198,2.986-10.826,4.424C423.602,207.998,351.052,287.119,256,298.16
	v21.844h42.667l16.816-8.409c71.325-35.663,126.03-97.61,152.598-172.798c4.262-12.789-2.651-26.612-15.44-30.874
	C447.631,106.253,442.216,106.253,437.206,107.923L437.206,107.923z"></path>
    <path d="M234.667,320.003L256,341.337l42.667-21.334L256,277.337L234.667,320.003z"></path>
    <path d="M246.199,331.535l9.801,9.801l42.667-21.333l-20.468-20.468c-8.837-8.837-23.163-8.837-32,0
	c-1.72,1.72-3.151,3.705-4.239,5.881v0C237.605,314.128,239.312,324.649,246.199,331.535L246.199,331.535z"></path>
    <ellipse transform="matrix(-0.7071 -0.7071 0.7071 -0.7071 10.0251 751.4755)" cx="160.648" cy="373.661" rx="16.617" ry="42.44"></ellipse>
    <g></g>
    <g></g>
    <g></g>
    <g></g>
    <g></g>
    <g></g>
    <g></g>
    <g></g>
    <g></g>
    <g></g>
    <g></g>
    <g></g>
    <g></g>
    <g></g>
    <g></g>
  </symbol>
  <symbol xmlns="http://www.w3.org/2000/svg" viewBox="0 0 512 512" id="arrow-back-circle-outline">
    <title>Arrow Back Circle</title>
    <path fill="none" stroke="currentColor" stroke-linecap="round" stroke-linejoin="round" stroke-width="32" d="M249.38 336L170 256l79.38-80M181.03 256H342"></path>
    <path d="M448 256c0-106-86-192-192-192S64 150 64 256s86 192 192 192 192-86 192-192z" fill="none" stroke="currentColor" stroke-miterlimit="10" stroke-width="32"></path>
  </symbol>
  <symbol xmlns="http://www.w3.org/2000/svg" viewBox="0 0 512 512" id="arrow-forward-circle-outline">
    <title>Arrow Forward Circle</title>
    <path fill="none" stroke="currentColor" stroke-linecap="round" stroke-linejoin="round" stroke-width="32" d="M262.62 336L342 256l-79.38-80M330.97 256H170"></path>
    <path d="M256 448c106 0 192-86 192-192S362 64 256 64 64 150 64 256s86 192 192 192z" fill="none" stroke="currentColor" stroke-miterlimit="10" stroke-width="32"></path>
  </symbol>
  <symbol xmlns="http://www.w3.org/2000/svg" viewBox="0 0 512 512" id="chevron-down-outline">
    <title>Chevron Down</title>
    <path fill="none" stroke="currentColor" stroke-linecap="round" stroke-linejoin="round" stroke-width="48" d="M112 184l144 144 144-144"></path>
  </symbol>
  <symbol xmlns="http://www.w3.org/2000/svg" viewBox="0 0 512 512" id="chevron-up-outline">
    <title>Chevron Up</title>
    <path fill="none" stroke="currentColor" stroke-linecap="round" stroke-linejoin="round" stroke-width="48" d="M112 328l144-144 144 144"></path>
  </symbol>
  <symbol fill="none" xmlns="http://www.w3.org/2000/svg" viewBox="0 0 92 78" id="communication">
    <path d="M92 60C92 69.9411 83.9411 78 74 78L47 78C44.2386 78 42 75.7614 42 73L42 39C42 33.4772 46.4772 29 52 29L87 29C89.7614 29 92 31.2386 92 34L92 60Z" fill="#FFF1DA"></path>
    <path d="M23.527 50.6574L21.6389 49.7535L10.4222 66.3382H22.9402L24.1464 65.5516V51.225L23.527 50.6574Z" fill="#407093"></path>
    <path d="M21.8095 49.8353L17.5644 47.803H16.7644L4.76062 65.5516L5.47525 66.3382H10.6483L21.8095 49.8353Z" fill="#365E7D"></path>
    <path d="M26.4 65.5515H9.84754C9.09559 65.5515 8.48596 66.161 8.48596 66.9131V68.6385C8.48596 69.3903 9.09545 69.9998 9.84727 69.9999H26.4C27.152 69.9999 27.7616 69.3904 27.7616 68.6385V66.9131C27.7616 66.161 27.152 65.5515 26.4 65.5515Z" fill="#4A80AA"></path>
    <path d="M8.76775 68.6385V66.9131C8.76775 66.1611 9.37738 65.5515 10.1293 65.5515H1.36158C0.609627 65.5515 0 66.161 0 66.9131V68.6385C0 69.3904 0.609627 69.9999 1.36158 69.9999H10.1292C9.37724 69.9999 8.76775 69.3904 8.76775 68.6385Z" fill="#407093"></path>
    <path d="M21.2397 39.9827C20.7302 41.0338 20.4423 42.2123 20.4423 43.459C20.4423 46.8659 22.5756 49.7721 25.5782 50.9218C26.8673 50.5179 28.0128 49.7893 28.9176 48.8301V47.0893L21.2397 39.9827Z" fill="#4A80AA"></path>
    <path d="M20.5767 43.4863C20.5767 42.2684 20.8583 41.1173 21.357 40.0909L18.9027 37.8192H17.9069C16.4009 39.2399 15.4595 41.2525 15.4595 43.4862C15.4595 47.7893 18.9477 51.2775 23.2508 51.2775C24.1471 51.2775 25.0067 51.1237 25.8078 50.8449C22.7628 49.7856 20.5767 46.8921 20.5767 43.4863Z" fill="#407093"></path>
    <path d="M65.812 0.924695C64.5791 -0.308232 62.5801 -0.308232 61.3473 0.924695L58.3345 3.93756V4.31941L62.0949 8.23954L62.7991 8.40223L65.8119 5.38937C67.0449 4.15658 67.0449 2.15762 65.812 0.924695Z" fill="#FFD086"></path>
    <path d="M66.6449 2.41492C66.5134 1.86915 66.238 1.35085 65.812 0.924695C64.5791 -0.308232 62.5801 -0.308232 61.3473 0.924695L58.3345 3.93756V4.31941L60.3282 6.3978C61.5169 5.16091 62.697 3.94029 63.3039 3.3334C64.3156 2.32182 65.7933 2.31403 66.6449 2.41492Z" fill="#FFC365"></path>
    <path d="M55.4975 8.95026C55.4629 8.95026 55.4279 8.94848 55.3927 8.94507L20.5763 5.51808C19.9957 5.46094 19.5714 4.944 19.6286 4.36336C19.6857 3.78272 20.2029 3.35875 20.7833 3.41549L55.5997 6.84234C56.1802 6.89949 56.6046 7.41642 56.5475 7.99706C56.4937 8.5427 56.0342 8.95026 55.4975 8.95026Z" fill="#365E7D"></path>
    <path d="M30.6459 15.4681C30.1774 15.4681 29.7493 15.1539 29.6249 14.6795C29.4769 14.1151 29.8144 13.5377 30.3787 13.3896L55.2287 6.87154C55.793 6.72374 56.3706 7.06103 56.5185 7.6254C56.6666 8.18964 56.3292 8.76714 55.7648 8.9152L30.9147 15.4333C30.8248 15.4568 30.7345 15.4681 30.6459 15.4681Z" fill="#407093"></path>
    <path d="M62.2465 47.136C61.7093 47.136 61.2498 46.7281 61.1964 46.1823L57.7907 11.3445C57.734 10.764 58.1586 10.2472 58.7393 10.1903C59.3199 10.1362 59.8366 10.5584 59.8933 11.139L63.299 45.9768C63.3557 46.5573 62.9311 47.0741 62.3504 47.131C62.3156 47.1342 62.2808 47.136 62.2465 47.136Z" fill="#365E7D"></path>
    <path d="M52.2252 37.2475C52.1357 37.2475 52.0446 37.2359 51.9538 37.212C51.3899 37.0624 51.054 36.4841 51.2035 35.9201L57.8176 10.9741C57.967 10.41 58.5452 10.0746 59.1093 10.2236C59.6732 10.3732 60.0092 10.9515 59.8596 11.5155L53.2456 36.4615C53.1202 36.9348 52.6927 37.2475 52.2252 37.2475Z" fill="#407093"></path>
    <path d="M55.3069 6.96429L58.3274 3.94376L62.7914 8.40782L59.7709 11.4284L55.3069 6.96429Z" fill="#FFC365"></path>
    <path d="M57.6009 9.24573C58.3269 8.48557 59.4605 7.29995 60.557 6.15999L58.3347 3.9375L55.3136 6.95843L57.6009 9.24573Z" fill="#FFA90F"></path>
    <path d="M60.4509 13.1519C60.1806 13.1519 59.9102 13.0487 59.704 12.8425L53.8944 7.03305C53.4818 6.62044 53.4818 5.95175 53.8944 5.53899C54.3069 5.12665 54.9757 5.12665 55.3883 5.53899L61.1979 11.3484C61.6105 11.761 61.6105 12.4297 61.1979 12.8425C60.9916 13.0488 60.7213 13.1519 60.4509 13.1519Z" fill="#4A80AA"></path>
    <path d="M61.1327 49.0376L25.7619 13.36C21.0724 23.9466 20.2581 35.3114 23.7688 45.1115C33.4643 53.8573 47.9476 55.2003 61.2809 49.7026L61.1327 49.0376Z" fill="#B5DCFF"></path>
    <path d="M25.9502 13.55L17.8463 5.37573L17.0341 5.45585C11.3245 19.3031 12.9917 34.3917 22.6683 44.0684C23.2544 44.6545 23.8609 45.2107 24.4853 45.7383C20.4062 35.9498 21.0691 24.3077 25.9502 13.55Z" fill="#8BCAFF"></path>
    <path d="M64.365 46.5017L28.4914 10.6282C28.1384 10.6826 27.7985 10.8431 27.5267 11.1149L25.9664 12.6754C25.6313 13.0105 25.4646 13.4481 25.4598 13.8874L61.2196 49.647C61.7513 50.1787 62.6133 50.1787 63.145 49.647L64.3651 48.4271C64.8967 47.8955 64.8967 47.0334 64.365 46.5017Z" fill="#DBEDFF"></path>
    <path d="M26.0203 12.7021L27.5481 11.1743C27.8295 10.8929 28.1848 10.7318 28.5515 10.6882L20.2352 2.37192C19.7035 1.84022 18.8415 1.84022 18.3096 2.37192L17.0896 3.59199C16.5579 4.12369 16.5579 4.9857 17.0896 5.5174L25.5228 13.9506C25.5117 13.5 25.6764 13.0459 26.0203 12.7021Z" fill="#B5DCFF"></path>
  </symbol>
  <symbol fill="none" xmlns="http://www.w3.org/2000/svg" viewBox="0 0 704 724" id="Decore">
    <path d="M22.3069 222C-18.0931 153.2 5.4736 13.3333 22.3069 -48L701.807 -149L766.307 122.5L727.807 723.5C649.14 724.5 473.707 717 401.307 679C310.807 631.5 351.807 555 276.807 515C201.807 475 244.807 369.5 218.807 329.5C192.807 289.5 72.8069 308 22.3069 222Z" fill="#6937FF"></path>
  </symbol>
  <symbol xmlns="http://www.w3.org/2000/svg" viewBox="0 0 512 512" id="dev">
    <path d="m475.734375 44.789062h-188.140625c-15.648438 0-28.335938 12.6875-28.335938 28.335938v106.421875c0 15.648437 12.6875 28.335937 28.335938 28.335937h66.925781l-10.816406 43.660157c-1.410156 5.6875 5.136719 9.96875 9.785156 6.398437l65.167969-50.058594h57.082031c15.648438 0 28.335938-12.683593 28.335938-28.335937v-106.421875c-.003907-15.648438-12.6875-28.335938-28.339844-28.335938zm0 0" fill="#88dbfd"></path>
    <path d="m352.066406 217.773438-8.363281 33.769531c-1.410156 5.6875 5.136719 9.96875 9.785156 6.398437l65.167969-50.058594h-53.714844zm0 0" fill="#5abfe9"></path>
    <path d="m475.734375 44.789062h-53.714844c15.652344 0 28.335938 12.6875 28.335938 28.335938v106.421875c0 15.648437-12.683594 28.335937-28.335938 28.335937h53.714844c15.652344 0 28.335937-12.683593 28.335937-28.335937v-106.421875c0-15.648438-12.683593-28.335938-28.335937-28.335938zm0 0" fill="#5abfe9"></path>
    <path d="m402.667969 380.441406c-1.410157-24.046875-16.675781-43.640625-39.394531-54.28125-27.808594-13.019531-103.539063-32.71875-103.539063-32.71875-7.320313-1.359375-12.628906-7.746094-12.628906-15.1875v-43.289062h-82.332031v43.289062c0 7.441406-5.308594 13.828125-12.625 15.1875 0 0-75.730469 19.699219-103.542969 32.71875-22.71875 10.640625-37.984375 30.234375-39.394531 54.28125l-1.707032 103.207032c-.140625 11.472656 9.125 20.851562 20.601563 20.851562h355.667969c11.476562 0 20.742187-9.378906 20.605468-20.851562zm0 0" fill="#fcc18b"></path>
    <path d="m402.667969 380.441406c-1.410157-24.046875-16.675781-43.640625-39.394531-54.28125-27.808594-13.019531-103.539063-32.71875-103.539063-32.71875-7.320313-1.359375-12.628906-7.746094-12.628906-15.1875v-43.289062h-53.714844v69.253906c0 7.441406 5.308594 13.828125 12.625 15.183594 0 0 75.734375 19.703125 103.542969 32.722656 22.71875 10.636719 37.984375 30.234375 39.394531 54.277344l1.625 98.097656h33.195313c11.476562 0 20.742187-9.378906 20.605468-20.851562zm0 0" fill="#eaab65"></path>
    <path d="m120.585938 125.367188h-10.808594c-3.914063 0-7.523438 1.324218-10.398438 3.546874-4.992187 3.859376-7.183594 10.351563-6.054687 16.5625l4.246093 23.371094c3.292969 17.320313 23.042969 9.40625 23.042969 9.40625zm0 0" fill="#eaab65"></path>
    <path d="m291.292969 125.367188h10.808593c3.914063 0 7.523438 1.324218 10.398438 3.546874 4.992188 3.859376 7.183594 10.351563 6.054688 16.5625l-4.246094 23.371094c-3.292969 17.320313-23.042969 9.40625-23.042969 9.40625zm0 0" fill="#fcc18b"></path>
    <path d="m265.847656 36.546875c-14.054687-12.996094-33.8125-24.335937-59.90625-24.652344-26.097656.316407-45.855468 11.65625-59.910156 24.652344-17.925781 16.574219-27.636719 41.191406-27.636719 66.59375l.023438 88.574219c0 41.875 54.425781 85.238281 87.523437 85.238281 33.09375 0 87.523438-43.363281 87.523438-85.238281l.023437-88.574219c-.003906-25.402344-9.714843-50.019531-27.640625-66.59375zm0 0" fill="#fcc18b"></path>
    <path d="m265.847656 36.546875c-14.054687-12.996094-33.8125-24.335937-59.90625-24.652344-9.84375.121094-18.785156 1.808594-26.859375 4.5625 13.332031 4.546875 24.296875 11.996094 33.050781 20.089844 17.925782 16.574219 27.636719 41.191406 27.636719 66.59375l-.023437 88.574219c0 31.683594-31.160156 64.21875-60.664063 78.175781 9.488281 4.488281 18.804688 7.0625 26.855469 7.0625 33.097656 0 87.523438-43.363281 87.523438-85.238281l.023437-88.574219c0-25.402344-9.710937-50.019531-27.636719-66.59375zm0 0" fill="#eaab65"></path>
    <path d="m260.097656 7.5h-108.316406c-27.871094 0-50.460938 22.59375-50.460938 50.460938v69.632812s13.894532-.316406 22.824219 8.519531c1.859375 1.839844 5.019531.496094 5.019531-2.121093v-54.570313c0-12.320313 9.988282-22.304687 22.304688-22.304687h20.269531c5.316407 0 10.46875 1.835937 14.582031 5.203124l1.988282 1.625c4.972656 4.066407 11.203125 6.289063 17.628906 6.289063 6.429688 0 12.65625-2.222656 17.632812-6.289063l1.988282-1.625c4.113281-3.367187 9.265625-5.203124 14.582031-5.203124h20.265625c12.320312 0 22.308594 9.984374 22.308594 22.304687v54.574219c0 2.613281 3.160156 3.960937 5.019531 2.121094 8.925781-8.839844 22.824219-8.523438 22.824219-8.523438v-69.628906c0-27.871094-22.59375-50.464844-50.460938-50.464844zm0 0" fill="#426175"></path>
    <path d="m260.097656 7.5h-18.734375c9.425781 11.097656 15.339844 27.765625 15.488281 49.617188h3.558594c12.316406 0 22.304688 9.984374 22.304688 22.304687v54.574219c0 2.613281 3.160156 3.960937 5.019531 2.121094 8.929687-8.839844 22.824219-8.523438 22.824219-8.523438v-69.628906c0-27.871094-22.59375-50.464844-50.460938-50.464844zm0 0" fill="#2c4456"></path>
    <path d="m363.273438 326.160156c-16.183594-7.574218-48.589844-17.414062-72.863282-24.316406l-5.25 1.992188c-51.042968 19.332031-107.398437 19.332031-158.441406 0l-5.25-1.992188c-24.273438 6.902344-56.679688 16.742188-72.863281 24.316406-22.71875 10.640625-37.984375 30.234375-39.394531 54.28125l-1.707032 103.207032c-.140625 11.472656 9.125 20.851562 20.601563 20.851562h355.667969c11.476562 0 20.742187-9.378906 20.605468-20.851562l-1.710937-103.207032c-1.410157-24.046875-16.675781-43.640625-39.394531-54.28125zm0 0" fill="#33bca5"></path>
    <path d="m332.210938 478.636719h-256.304688c-7.792969 0-14.265625-6.023438-14.820312-13.800781l-10.480469-147.074219c-.613281-8.601563 6.199219-15.917969 14.820312-15.917969h277.269531c8.621094 0 15.433594 7.316406 14.820313 15.917969l-10.484375 147.074219c-.554688 7.777343-7.023438 13.800781-14.820312 13.800781zm0 0" fill="#f2f2f2"></path>
    <path d="m342.695312 301.84375h-54.109374c8.621093 0 15.433593 7.316406 14.820312 15.917969l-11.464844 160.875h40.269532c7.796874 0 14.269531-6.023438 14.820312-13.800781l10.484375-147.074219c.613281-8.601563-6.199219-15.917969-14.820313-15.917969zm0 0" fill="#cdd6df"></path>
    <path d="m350.59375 504.5h-289.308594c-7.140625 0-12.929687-5.789062-12.929687-12.929688 0-7.144531 5.789062-12.933593 12.929687-12.933593h289.308594c7.140625 0 12.929688 5.789062 12.929688 12.933593 0 7.140626-5.789063 12.929688-12.929688 12.929688zm0 0" fill="#cdd6df"></path>
    <path d="m226.632812 396.171875c0 11.429687-9.265624 20.695313-20.695312 20.695313s-20.695312-9.265626-20.695312-20.695313 9.265624-20.695313 20.695312-20.695313 20.695312 9.265626 20.695312 20.695313zm0 0" fill="#fff"></path>
    <path d="m370.835938 117.042969c0-3.796875-3.523438-6.761719-6.300782-6.761719-.648437 0-1.296875.09375-1.757812.464844l-23.527344 15.28125c-2.128906 1.390625-2.871094 3.613281-2.871094 5.1875 0 1.574218.742188 3.796875 2.871094 5.1875l23.527344 15.28125c.460937.371094 1.109375.464844 1.757812.464844 2.777344 0 6.300782-2.964844 6.300782-6.761719 0-1.574219-.648438-2.964844-1.667969-3.613281l-16.304688-10.558594 16.304688-10.558594c1.015625-.648438 1.667969-2.039062 1.667969-3.613281zm0 0"></path>
    <path d="m417.425781 85.367188c-1.667969 0-3.152343.738281-3.890625 2.316406l-32.511718 66.777344c-.277344.554687-.464844 1.203124-.464844 1.761718 0 2.3125 2.039062 4.90625 5.191406 4.90625 1.757812 0 3.519531-.925781 4.167969-2.3125l32.601562-66.78125c.277344-.554687.371094-1.203125.371094-1.761718-.003906-2.960938-2.875-4.90625-5.464844-4.90625zm0 0"></path>
    <path d="m464.199219 126.027344-23.523438-15.28125c-.464843-.371094-1.113281-.464844-1.761719-.464844-2.777343 0-6.296874 2.964844-6.296874 6.761719 0 1.574219.648437 2.964843 1.667968 3.613281l16.300782 10.558594-16.300782 10.558594c-1.019531.648437-1.667968 2.039062-1.667968 3.613281 0 3.796875 3.519531 6.761719 6.296874 6.761719.648438 0 1.296876-.09375 1.761719-.464844l23.523438-15.28125c2.132812-1.390625 2.871093-3.613282 2.871093-5.1875 0-1.574219-.738281-3.796875-2.871093-5.1875zm0 0"></path>
    <path d="m475.734375 37.289062h-161.484375c-8.34375-21.78125-29.472656-37.289062-54.15625-37.289062h-108.3125c-31.957031 0-57.960938 26.003906-57.960938 57.960938v65.816406c-6.460937 5.566406-9.464843 14.273437-7.875 23.039062l4.257813 23.429688c1.53125 8.046875 5.804687 12.183594 9.117187 14.234375 3.707032 2.292969 7.820313 3.050781 11.597657 3.070312v4.164063c0 21.125 12.324219 44.40625 33.8125 63.878906 4.046875 3.664062 8.253906 7.042969 12.542969 10.097656v12.5625c0 3.828125-2.730469 7.113282-6.496094 7.8125-.175782.03125-.347656.070313-.519532.113282-.128906.035156-13.003906 3.390624-29.835937 8.164062h-54.996094c-6.183593 0-12.148437 2.597656-16.363281 7.121094-4.214844 4.523437-6.378906 10.660156-5.9375 16.828125l.148438 2.117187c-24.597657 12.335938-40.074219 34.453125-41.550782 59.589844-.003906.105469-.007812.210938-.011718.316406l-1.70703175 103.238282c-.09375005 7.570312 2.78906275 14.707031 8.10546875 20.09375 5.324219 5.386718 12.421875 8.351562 19.996094 8.351562h355.667969c7.570312 0 14.671874-2.964844 19.992187-8.351562 5.320313-5.386719 8.203125-12.519532 8.109375-20.125l-1.707031-103.207032c-.003907-.105468-.007813-.210937-.015625-.316406-1.515625-25.863281-17.851563-48.527344-43.703125-60.632812-.472657-.222657-.96875-.449219-1.480469-.679688l.027344-.394531c.4375-6.167969-1.726563-12.300781-5.9375-16.828125-4.214844-4.523438-10.179688-7.121094-16.363282-7.121094h-51.238281c-16.828125-4.773438-29.707031-8.128906-29.835937-8.160156-.171875-.046875-.34375-.085938-.519532-.117188-3.765624-.699218-6.496093-3.984375-6.496093-7.8125v-12.558594c4.289062-3.058593 8.496093-6.4375 12.542969-10.101562 13.65625-12.375 23.613281-26.289062 29.054687-40.210938h48.730469l-8.511719 34.355469c-1.417969 5.730469.855469 11.519531 5.792969 14.75 2.320312 1.519531 4.921875 2.273438 7.511718 2.273438 2.929688 0 5.84375-.960938 8.328126-2.871094l63.148437-48.507813h54.53125c19.761719 0 35.835937-16.074218 35.835937-35.835937v-106.421875c0-19.757812-16.074218-35.835938-35.835937-35.835938zm-174.757813 99.445313c2.867188-.976563 5.582032-1.378906 7.351563-1.539063 2.355469 2.089844 3.464844 5.53125 2.847656 8.9375l-4.234375 23.3125c-.617187 3.253907-1.867187 4.027344-2.277344 4.28125-.871093.539063-2.15625.816407-3.695312.832032zm-192.15625-78.773437c0-23.6875 19.273438-42.960938 42.960938-42.960938h108.316406c23.6875 0 42.960938 19.273438 42.960938 42.960938v62.839843c-3.710938.65625-8.332032 1.914063-12.84375 4.320313v-45.699219c0-16.433594-13.371094-29.804687-29.804688-29.804687h-20.269531c-7.027344 0-13.890625 2.449218-19.332031 6.894531l-1.984375 1.625c-3.625 2.964843-8.203125 4.597656-12.886719 4.597656s-9.257812-1.632813-12.882812-4.59375l-1.988282-1.628906c-5.4375-4.445313-12.304687-6.894531-19.332031-6.894531h-20.265625c-16.433594 0-29.804688 13.367187-29.804688 29.804687v45.695313c-4.511718-2.402344-9.132812-3.664063-12.84375-4.316407zm-1.605468 113.765624c-.410156-.253906-1.660156-1.027343-2.265625-4.21875l-4.246094-23.371093c-.617187-3.40625.492187-6.84375 2.839844-8.9375 1.769531.160156 4.488281.554687 7.359375 1.53125l.007812 35.828125c-1.535156-.015625-2.820312-.292969-3.695312-.832032zm-66.359375 319.839844c0 1.882813.257812 3.703125.734375 5.433594h-13.484375c-3.53125 0-6.839844-1.382812-9.324219-3.894531-2.480469-2.511719-3.820312-5.839844-3.78125-9.335938l1.707031-103.042969c1.109375-18.007812 11.089844-33.621093 27.742188-43.832031l9.15625 128.472657c.167969 2.359374.707031 4.613281 1.550781 6.710937-8.28125 2.609375-14.300781 10.359375-14.300781 19.488281zm313.65625-26.199218 9.304687-130.542969c18.820313 10.097656 30.167969 26.625 31.355469 45.902343l1.707031 103.011719c.039063 3.527344-1.304687 6.855469-3.78125 9.367188-2.484375 2.511719-5.792968 3.894531-9.324218 3.894531h-13.484376c.480469-1.730469.734376-3.550781.734376-5.433594 0-10.363281-7.753907-18.945312-17.765626-20.253906.675782-1.878906 1.109376-3.871094 1.253907-5.945312zm1.511719 26.199218c0 2.996094-2.4375 5.433594-5.429688 5.433594h-289.308594c-2.992187 0-5.429687-2.4375-5.429687-5.433594 0-2.992187 2.4375-5.429687 5.429687-5.429687h289.308594c2.992188 0 5.429688 2.4375 5.429688 5.429687zm-7.941407-179.878906c1.40625 1.511719 2.101563 3.476562 1.953125 5.539062l-10.484375 147.078126c-.273437 3.832031-3.496093 6.832031-7.339843 6.832031h-256.304688c-3.839844 0-7.0625-3-7.339844-6.835938l-10.480468-147.074219c-.148438-2.0625.546874-4.027343 1.953124-5.539062 1.410157-1.511719 3.320313-2.34375 5.386719-2.34375h277.269531c2.0625 0 3.976563.832031 5.386719 2.34375zm-101.886719-17.34375h-80.511718c4.101562-4.171875 6.589844-9.882812 6.589844-16.089844v-3.355468c11.824218 6.121093 23.574218 9.554687 33.664062 9.554687s21.839844-3.433594 33.667969-9.554687v3.355468c0 6.207032 2.488281 11.917969 6.589843 16.089844zm10.878907-49.867188c-16.746094 15.171876-36.816407 24.976563-51.136719 24.976563-14.316406 0-34.386719-9.804687-51.132812-24.976563-18.359376-16.628906-28.886719-35.863281-28.886719-52.765624l-.015625-47.25c.097656 0 .195312.003906.292968.003906 1.355469 0 2.722657-.265625 4.03125-.8125 3.910157-1.632813 6.4375-5.425782 6.4375-9.660156v-54.570313c0-8.164063 6.640626-14.804687 14.804688-14.804687h20.269531c3.574219 0 7.066407 1.246093 9.832031 3.507812l1.992188 1.628906c6.296875 5.144532 14.242188 7.980469 22.375 7.980469s16.082031-2.835937 22.378906-7.984375l1.988282-1.625c2.765624-2.261719 6.261718-3.507812 9.835937-3.507812h20.265625c8.164062 0 14.808594 6.640624 14.808594 14.804687v54.570313c0 4.238281 2.523437 8.027343 6.4375 9.660156 1.398437.585937 2.871094.847656 4.320312.808594l-.011718 47.253906c.003906 16.898437-10.527344 36.132812-28.886719 52.761718zm239.496093-64.929687c0 11.488281-9.34375 20.835937-20.835937 20.835937h-57.078125c-1.652344 0-3.257812.546876-4.566406 1.554688l-62.210938 47.785156 9.917969-40.035156c.554687-2.238281.050781-4.609375-1.371094-6.425781-1.421875-1.816407-3.601562-2.878907-5.90625-2.878907h-54.222656c.441406-2.917968.667969-5.8125.667969-8.667968v-4.164063c3.773437-.019531 7.886718-.777343 11.59375-3.070312 3.316406-2.050781 7.589844-6.1875 9.128906-14.292969l4.246094-23.371094c1.59375-8.765625-1.417969-17.476562-7.875-23.039062v-65.816406c0-1.910157-.09375-3.804688-.277344-5.671876h157.953125c11.492187 0 20.835937 9.347657 20.835937 20.835938zm0 0"></path>
    <path d="m205.9375 424.367188c15.546875 0 28.195312-12.648438 28.195312-28.195313s-12.648437-28.195313-28.195312-28.195313-28.195312 12.648438-28.195312 28.195313 12.648437 28.195313 28.195312 28.195313zm0-41.390626c7.277344 0 13.195312 5.921876 13.195312 13.195313 0 7.277344-5.917968 13.195313-13.195312 13.195313-7.273438 0-13.195312-5.917969-13.195312-13.195313 0-7.273437 5.921874-13.195313 13.195312-13.195313zm0 0"></path>
  </symbol>
</svg>